HIERARCHY
ROOT root
{
	OFFSET 0.000000 0.000000 0.000000
	CHANNELS 6 Xposition Yposition Zposition Zrotation Yrotation Xrotation
	JOINT lhip
	{
		OFFSET 0.058581 -0.082280 -0.017664
		CHANNELS 3 Zrotation Yrotation Xrotation
		JOINT lknee
		{
			OFFSET 0.043451 -0.386469 0.008037
			CHANNELS 3 Zrotation Yrotation Xrotation
			JOINT lankle
			{
				OFFSET -0.014790 -0.426874 -0.037428
				CHANNELS 3 Zrotation Yrotation Xrotation
				JOINT ltoe
				{
					OFFSET 0.041054 -0.060286 0.122042
					CHANNELS 3 Zrotation Yrotation Xrotation
					End Site
					{
						OFFSET 0.000000 0.000000 0.000000
					}
				}
			}
		}
	}
	JOINT rhip
	{
		OFFSET -0.060310 -0.090513 -0.013543
		CHANNELS 3 Zrotation Yrotation Xrotation
		JOINT rknee
		{
			OFFSET -0.043257 -0.383688 -0.004843
			CHANNELS 3 Zrotation Yrotation Xrotation
			JOINT rankle
			{
				OFFSET 0.019056 -0.420046 -0.034562
				CHANNELS 3 Zrotation Yrotation Xrotation
				JOINT rtoe
				{
					OFFSET -0.034840 -0.062106 0.130323
					CHANNELS 3 Zrotation Yrotation Xrotation
					End Site
					{
						OFFSET 0.000000 0.000000 0.000000
					}
				}
			}
		}
	}
	JOINT lowerback
	{
		OFFSET 0.004439 0.124404 -0.038385
		CHANNELS 3 Zrotation Yrotation Xrotation
		JOINT upperback
		{
			OFFSET 0.004488 0.137956 0.026820
			CHANNELS 3 Zrotation Yrotation Xrotation
			JOINT chest
			{
				OFFSET -0.002265 0.056032 0.002855
				CHANNELS 3 Zrotation Yrotation Xrotation
				JOINT lowerneck
				{
					OFFSET -0.013390 0.211636 -0.033468
					CHANNELS 3 Zrotation Yrotation Xrotation
					JOINT upperneck
					{
						OFFSET 0.010113 0.088937 0.050410
						CHANNELS 3 Zrotation Yrotation Xrotation
						End Site
						{
							OFFSET 0.000000 0.000000 0.000000
						}
					}
				}
				JOINT lclavicle
				{
					OFFSET 0.071702 0.114000 -0.018898
					CHANNELS 3 Zrotation Yrotation Xrotation
					JOINT lshoulder
					{
						OFFSET 0.122921 0.045205 -0.019046
						CHANNELS 3 Zrotation Yrotation Xrotation
						JOINT lelbow
						{
							OFFSET 0.255332 -0.015649 -0.022946
							CHANNELS 3 Zrotation Yrotation Xrotation
							JOINT lwrist
							{
								OFFSET 0.265709 0.012698 -0.007375
								CHANNELS 3 Zrotation Yrotation Xrotation
								End Site
								{
									OFFSET 0.000000 0.000000 0.000000
								}
							}
						}
					}
				}
				JOINT rclavicle
				{
					OFFSET -0.082954 0.112472 -0.023707
					CHANNELS 3 Zrotation Yrotation Xrotation
					JOINT rshoulder
					{
						OFFSET -0.113228 0.046853 -0.008472
						CHANNELS 3 Zrotation Yrotation Xrotation
						JOINT relbow
						{
							OFFSET -0.260127 -0.014369 -0.031269
							CHANNELS 3 Zrotation Yrotation Xrotation
							JOINT rwrist
							{
								OFFSET -0.269108 0.006794 -0.006027
								CHANNELS 3 Zrotation Yrotation Xrotation
								End Site
								{
									OFFSET 0.000000 0.000000 0.000000
								}
							}
						}
					}
				}
			}
		}
	}
}
MOTION
Frames: 10
Frame Time: 0.033333
1.714408 0.731333 0.984572 -86.541754 1.370057 84.527065 0.831914 1.158815 8.986047 -2.134275 -14.724199 1.718751 7.018901 8.388774 -19.275109 0.000000 -0.000000 0.000000 -0.046974 -5.198612 4.829593 1.443515 -0.861820 8.653802 2.649389 -2.477054 -19.029487 0.000000 -0.000000 0.000000 -3.280223 3.998697 7.518964 1.211031 -0.582275 1.708441 2.529991 -0.617599 3.540118 4.048873 5.194122 11.786397 4.171579 2.978328 4.426346 -23.095360 5.866115 4.706973 -65.258654 -6.098013 7.080864 13.590985 -31.229904 3.083904 -1.412795 -0.809755 -12.472880 22.560591 -2.685958 3.709487 64.934912 3.145080 8.856656 -15.595170 23.898486 -4.379542 8.122312 0.008901 -10.888217 
1.716749 0.732151 0.984194 -85.956299 2.646350 86.430806 2.221920 -0.446955 6.319981 -2.477349 -13.756036 2.515150 7.022920 8.221080 -19.190873 0.000000 -0.000000 0.000000 1.403739 -4.268418 3.157723 2.294706 -1.602587 7.448729 1.711345 -3.441969 -17.975663 0.000000 -0.000000 0.000000 -1.989225 2.598998 5.910744 1.417044 -1.348745 1.831729 2.134562 0.245704 2.858356 3.394524 3.366680 10.869364 2.409539 1.667246 3.213918 -23.393167 6.223679 4.515539 -65.322124 -6.134146 7.585504 13.729466 -33.167188 3.335351 -4.122844 -1.510292 -14.143972 22.670474 -2.936718 3.664415 65.123266 3.116280 9.370873 -16.114685 23.983195 -3.591064 8.779561 0.026350 -11.383132 
1.717888 0.733781 0.983609 -86.099064 2.892467 86.757379 2.694717 -0.725962 5.904006 -2.741830 -13.730468 2.786856 7.039943 8.401414 -19.262518 0.000000 -0.000000 0.000000 1.189792 -3.985492 3.641278 3.089237 -0.308612 6.801790 2.418670 -3.675317 -13.962543 0.000000 -0.000000 0.000000 -1.524365 2.824986 5.387530 1.687771 -1.303921 1.908239 2.083914 -0.361373 3.255470 2.964080 1.583026 8.883734 0.461068 0.386391 2.452535 -24.231598 5.931743 3.988431 -65.012219 -6.451799 8.261959 12.648019 -33.757572 5.546355 -3.455638 -1.744160 -12.061139 22.105799 -3.045439 3.117739 65.268822 3.107071 9.597418 -15.786654 24.107373 -3.762157 8.105576 0.075088 -10.945774 
1.719031 0.734230 0.983313 -86.493441 2.747687 87.002771 2.460523 -0.721584 5.614965 -2.618001 -13.497398 2.884365 7.111677 8.467889 -19.251151 0.000000 -0.000000 0.000000 0.898231 -3.812201 3.577547 3.292090 -0.006900 6.360233 2.819535 -3.831861 -13.595736 0.000000 -0.000000 0.000000 -1.532468 2.753415 5.120907 1.814957 -1.391183 1.921368 1.992638 -0.615827 3.702914 2.949050 -0.012447 6.057806 -2.081819 -1.339172 1.783225 -24.726510 6.033855 3.028377 -64.678067 -6.591284 9.017653 12.001822 -34.526289 6.762038 -2.893039 -2.352284 -11.358965 22.364921 -2.943566 2.369119 64.908833 3.251624 10.166222 -15.880440 24.050972 -4.043931 7.341933 0.127866 -10.109779 
1.719982 0.734437 0.983231 -86.745213 2.683735 87.166751 2.376409 -0.727990 5.448614 -2.606454 -13.464613 2.851547 7.041937 8.475180 -19.296543 0.000000 -0.000000 0.000000 0.815129 -3.634421 3.317322 3.359652 0.090615 6.412597 2.925060 -3.858502 -13.519732 0.000000 -0.000000 0.000000 -1.636329 2.725752 5.070244 1.908441 -1.453116 1.883628 2.097800 -0.659299 3.789600 3.003236 -0.686660 4.750251 -3.249354 -2.027485 1.180220 -24.873351 5.978040 2.655732 -64.639397 -6.593721 9.243670 11.751444 -34.770916 7.059783 -3.062223 -2.426120 -11.413797 22.394548 -2.810614 2.081454 64.697173 3.267537 10.354584 -15.922908 23.968144 -4.224153 7.188880 0.117793 -9.817743 
1.720691 0.734938 0.982949 -87.102964 2.742279 87.293284 2.443079 -0.613598 5.275303 -2.613566 -13.353355 2.943881 7.033839 8.575890 -19.299172 0.000000 -0.000000 0.000000 0.916763 -3.608890 3.008267 3.317968 0.266395 6.597722 2.920547 -3.749758 -13.606875 0.000000 -0.000000 0.000000 -1.700068 2.668596 4.994257 1.994261 -1.521782 1.913416 2.212213 -0.685997 3.692112 2.872988 -0.608955 4.352568 -3.328539 -2.003853 0.764728 -24.832547 5.758361 2.761426 -64.741739 -6.477200 9.278993 11.738640 -34.867289 7.071887 -2.930613 -2.438634 -11.544201 22.410847 -2.668779 2.101784 64.471052 3.346457 10.339830 -15.915566 24.220550 -4.228322 7.087489 0.117778 -9.811093 
1.720674 0.735220 0.983063 -87.374178 2.804404 87.059343 2.514180 -0.527558 5.595268 -2.610276 -13.201180 2.902443 7.065102 8.585701 -19.361272 0.000000 -0.000000 0.000000 0.899125 -3.752716 3.398068 3.421372 0.435685 6.343645 2.829857 -3.611741 -13.478958 0.000000 -0.000000 0.000000 -1.649005 2.639052 5.253469 1.994761 -1.647128 2.009898 2.307656 -0.756245 3.473331 2.758585 -0.793584 4.223645 -3.263446 -1.905344 0.176861 -24.856584 5.520161 2.949986 -64.884524 -6.348780 9.078444 11.926306 -34.351908 6.914502 -3.099014 -2.337418 -11.807052 22.325909 -2.471549 2.172478 64.392298 3.345389 10.156586 -15.885681 24.231918 -4.092925 7.030838 0.161805 -9.705227 
1.721309 0.735669 0.983091 -87.651135 2.839270 87.100866 2.565687 -0.476826 5.556792 -2.598923 -13.079910 2.872228 7.118684 8.636562 -19.235684 0.000000 -0.000000 0.000000 0.895752 -3.520513 3.518356 3.563818 0.589347 5.844853 2.738793 -3.600304 -13.253458 0.000000 -0.000000 0.000000 -1.614519 2.528357 5.286207 1.925323 -1.765041 2.053276 2.283662 -0.690366 3.299895 2.609981 -0.889440 4.400031 -3.222682 -1.874484 -0.125072 -24.739129 5.447163 3.141945 -64.879018 -6.206101 8.895597 11.941203 -33.742600 6.997113 -3.748787 -2.317842 -12.015378 22.343635 -2.353822 2.256047 64.429644 3.390585 10.139866 -15.949783 24.268465 -3.919384 7.138237 0.189657 -9.790561 
1.721299 0.736026 0.983001 -87.930179 2.844870 87.053003 2.585805 -0.435683 5.660620 -2.611131 -12.993077 2.847784 7.159373 8.708586 -19.296260 0.000000 -0.000000 0.000000 0.911862 -3.399432 3.572761 3.581571 0.665670 5.774475 2.764456 -3.589741 -13.111830 0.000000 -0.000000 0.000000 -1.618170 2.489320 5.270133 1.904163 -1.819332 2.097809 2.268722 -0.732799 3.271069 2.634545 -0.982648 4.385386 -3.195009 -1.838538 -0.412458 -24.734483 5.463002 3.185937 -64.825516 -5.938050 8.679310 12.166562 -32.776705 7.096518 -4.143275 -2.320671 -11.675360 22.192730 -2.382574 2.416786 64.607251 3.334275 10.098562 -16.153671 24.532872 -3.865174 7.162345 0.164576 -9.847782 
1.721554 0.736624 0.982736 -88.041520 2.955622 86.972279 2.800100 -0.113239 5.707322 -2.664424 -13.118627 2.896173 7.097429 8.579942 -19.343610 0.000000 -0.000000 0.000000 1.037853 -3.560621 3.639009 3.589817 0.844064 5.754353 2.710693 -3.553376 -13.041875 0.000000 -0.000000 0.000000 -1.533102 2.446100 5.344289 1.869366 -1.909509 2.164963 2.241597 -0.781151 3.358008 2.720261 -1.190027 4.148731 -3.075429 -1.948976 -0.655608 -24.701454 5.531199 3.157787 -64.613343 -5.524582 8.361341 12.196833 -31.456537 7.413719 -3.936865 -1.990096 -10.748098 22.011353 -2.624249 2.307130 64.654318 3.111703 9.936414 -16.098928 24.903276 -3.514541 6.969976 0.135265 -9.505328 
